<svg xmlns="http://www.w3.org/2000/svg" viewBox="0 0 64 64" role="img" aria-label="Mango">
  <defs>
    <linearGradient id="mangoBody" x1="18%" y1="6%" x2="88%" y2="96%">
      <stop offset="0%" stop-color="#FF4D55"/>
      <stop offset="42%" stop-color="#E50914"/>
      <stop offset="100%" stop-color="#8B0A12"/>
    </linearGradient>
    <linearGradient id="mangoShine" x1="28%" y1="12%" x2="72%" y2="68%">
      <stop offset="0%" stop-color="#FFFFFF" stop-opacity="0.42"/>
      <stop offset="58%" stop-color="#FFFFFF" stop-opacity="0"/>
    </linearGradient>
    <linearGradient id="leafGrad" x1="15%" y1="0%" x2="95%" y2="100%">
      <stop offset="0%" stop-color="#6EE7A0"/>
      <stop offset="100%" stop-color="#16A34A"/>
    </linearGradient>
  </defs>
  <!-- transparent canvas; works on light and dark chrome -->
  <rect width="64" height="64" rx="16" fill="none"/>
  <!-- mango body -->
  <path
    fill="url(#mangoBody)"
    d="M33.4 11.2c8.2 1.2 16.6 9.4 17.6 20.4 1.1 12.2-7.5 23.4-19.1 24.6-10.6 1.1-20.6-7-22.2-17.4C7.9 27.6 14.6 17.2 24.1 13.4c3.1-1.2 6.2-2.1 9.3-2.2z"/>
  <!-- highlight -->
  <path
    fill="url(#mangoShine)"
    d="M28.2 16.4c5-1.4 11.2.5 14.5 4.9 1.4 1.9 1 3.8-1.1 4.1-4.4.7-8.8-1.1-12-3.9-1.9-1.7-2.2-4-1.4-5.1z"/>
  <!-- stem -->
  <path
    fill="#3D2B1F"
    d="M36.6 12.6c1.3-2.9 3.7-4.9 6.5-5.6.45-.1.8.35.65.8-.9 2.2-1.1 4-.25 5.9.15.35-.2.7-.55.6-2.7-.65-5-.95-6.35-1.7z"/>
  <!-- leaf -->
  <path
    fill="url(#leafGrad)"
    d="M41.8 9.4c5.3.2 9.3 3.2 10.1 7.3.15.8-.75 1.35-1.35.9-2.9-2.1-5.9-2.8-9.3-2.9-.75 0-1-.8-.55-1.25.05 0 .35-.8 1.1-4.05z"/>
  <path
    fill="#0E7A3A"
    opacity="0.32"
    d="M43.4 11c2.9.55 5.4 2 6.7 4-2.3-1.1-4.8-1.7-7.4-1.9.2-.7.45-1.45.7-2.1z"/>
</svg>
